<svg id="visual" viewBox="0 0 900 600" width="900" height="600" xmlns="http://www.w3.org/2000/svg" xmlns:xlink="http://www.w3.org/1999/xlink" version="1.1"><path d="M0 151L64 151L64 241L129 241L129 193L193 193L193 187L257 187L257 295L321 295L321 127L386 127L386 259L450 259L450 109L514 109L514 247L579 247L579 229L643 229L643 157L707 157L707 169L771 169L771 163L836 163L836 145L900 145L900 277L900 0L900 0L836 0L836 0L771 0L771 0L707 0L707 0L643 0L643 0L579 0L579 0L514 0L514 0L450 0L450 0L386 0L386 0L321 0L321 0L257 0L257 0L193 0L193 0L129 0L129 0L64 0L64 0L0 0Z" fill="#ffffff"></path><path d="M0 217L64 217L64 373L129 373L129 391L193 391L193 337L257 337L257 361L321 361L321 217L386 217L386 343L450 343L450 271L514 271L514 433L579 433L579 325L643 325L643 271L707 271L707 229L771 229L771 283L836 283L836 217L900 217L900 385L900 275L900 143L836 143L836 161L771 161L771 167L707 167L707 155L643 155L643 227L579 227L579 245L514 245L514 107L450 107L450 257L386 257L386 125L321 125L321 293L257 293L257 185L193 185L193 191L129 191L129 239L64 239L64 149L0 149Z" fill="#e9f0f4"></path><path d="M0 277L64 277L64 493L129 493L129 445L193 445L193 457L257 457L257 421L321 421L321 349L386 349L386 391L450 391L450 331L514 331L514 493L579 493L579 379L643 379L643 379L707 379L707 331L771 331L771 367L836 367L836 337L900 337L900 475L900 383L900 215L836 215L836 281L771 281L771 227L707 227L707 269L643 269L643 323L579 323L579 431L514 431L514 269L450 269L450 341L386 341L386 215L321 215L321 359L257 359L257 335L193 335L193 389L129 389L129 371L64 371L64 215L0 215Z" fill="#d3e0e8"></path><path d="M0 601L64 601L64 601L129 601L129 601L193 601L193 601L257 601L257 601L321 601L321 601L386 601L386 601L450 601L450 601L514 601L514 601L579 601L579 601L643 601L643 601L707 601L707 601L771 601L771 601L836 601L836 601L900 601L900 601L900 473L900 335L836 335L836 365L771 365L771 329L707 329L707 377L643 377L643 377L579 377L579 491L514 491L514 329L450 329L450 389L386 389L386 347L321 347L321 419L257 419L257 455L193 455L193 443L129 443L129 491L64 491L64 275L0 275Z" fill="#bed1dd"></path></svg>