<svg id="visual" viewBox="0 0 900 600" width="900" height="600" xmlns="http://www.w3.org/2000/svg" xmlns:xlink="http://www.w3.org/1999/xlink" version="1.1"><rect width="900" height="600" fill="#CCCCCC"></rect><g><g transform="translate(53 150)"><path d="M59.1 -20.3C67.8 7.6 60 39.7 38.5 56C17 72.4 -18.2 72.9 -40.2 56.6C-62.3 40.3 -71.3 7.1 -62.4 -21.1C-53.5 -49.2 -26.7 -72.3 -0.8 -72.1C25.2 -71.8 50.4 -48.2 59.1 -20.3Z" stroke="#74b6ec" fill="none" stroke-width="20"></path></g><g transform="translate(459 106)"><path d="M54.5 -17.6C61.5 3.8 51.7 30.7 31.6 45.9C11.4 61.1 -19 64.6 -38.6 50.8C-58.3 37.1 -67.2 6.2 -58.9 -16.9C-50.7 -40 -25.3 -55.2 -0.8 -55C23.8 -54.7 47.5 -38.9 54.5 -17.6Z" stroke="#74b6ec" fill="none" stroke-width="20"></path></g><g transform="translate(375 572)"><path d="M42.1 -13.6C47.5 2.9 39.9 23.7 24.8 34.9C9.6 46.1 -13.1 47.8 -26.9 37.6C-40.7 27.5 -45.4 5.6 -39.5 -11.7C-33.5 -29 -16.7 -41.7 0.8 -42C18.4 -42.3 36.8 -30.1 42.1 -13.6Z" stroke="#74b6ec" fill="none" stroke-width="20"></path></g><g transform="translate(186 332)"><path d="M51.6 -19.2C58.6 4.8 50.3 31.3 31.7 45.1C13.1 59 -15.8 60.2 -33.5 47.1C-51.3 34 -57.9 6.5 -50.5 -18.1C-43.1 -42.7 -21.5 -64.5 0.4 -64.6C22.3 -64.8 44.6 -43.2 51.6 -19.2Z" stroke="#74b6ec" fill="none" stroke-width="20"></path></g><g transform="translate(658 155)"><path d="M42.4 -13.8C48.1 3.8 41.2 25.4 26.6 35.8C12.1 46.2 -10.1 45.2 -24 34.7C-37.9 24.2 -43.6 4.1 -38.2 -13C-32.9 -30.1 -16.4 -44.1 1 -44.4C18.3 -44.7 36.7 -31.3 42.4 -13.8Z" stroke="#74b6ec" fill="none" stroke-width="20"></path></g><g transform="translate(444 322)"><path d="M49.4 -16.6C55.6 3 46.4 27.1 29.4 39.1C12.4 51.1 -12.4 51.1 -29.3 39.1C-46.2 27.1 -55.2 3.1 -49 -16.5C-42.8 -36.1 -21.4 -51.3 0.1 -51.3C21.6 -51.3 43.2 -36.2 49.4 -16.6Z" stroke="#74b6ec" fill="none" stroke-width="20"></path></g><g transform="translate(711 401)"><path d="M54.5 -17.9C62.6 7.3 55.7 37.2 36.3 51.7C16.9 66.1 -14.9 65.2 -36.5 49.6C-58.2 34 -69.7 3.8 -61.9 -20.9C-54.2 -45.6 -27.1 -64.8 -1.9 -64.2C23.2 -63.6 46.4 -43.1 54.5 -17.9Z" stroke="#74b6ec" fill="none" stroke-width="20"></path></g><g transform="translate(884 128)"><path d="M51.5 -14.6C58.5 4.8 50.2 31.3 32.5 44C14.8 56.6 -12.4 55.6 -28.8 42.9C-45.1 30.2 -50.6 6 -44 -12.8C-37.4 -31.7 -18.7 -45.1 1.8 -45.6C22.3 -46.2 44.5 -34 51.5 -14.6Z" stroke="#74b6ec" fill="none" stroke-width="20"></path></g><g transform="translate(71 550)"><path d="M62.9 -20.5C71.2 5.1 60.5 36.9 38.5 52.8C16.4 68.8 -17 69.1 -38.4 53.4C-59.9 37.7 -69.4 6 -61 -19.7C-52.6 -45.5 -26.3 -65.4 0.5 -65.5C27.3 -65.7 54.6 -46.1 62.9 -20.5Z" stroke="#74b6ec" fill="none" stroke-width="20"></path></g><g transform="translate(828 580)"><path d="M38.3 -13.6C42.5 0.5 33.8 17.6 19.8 28C5.7 38.4 -13.8 42.2 -26.4 33.7C-39 25.2 -44.6 4.4 -39 -11.6C-33.5 -27.6 -16.7 -38.8 0.1 -38.9C17 -38.9 34 -27.8 38.3 -13.6Z" stroke="#74b6ec" fill="none" stroke-width="20"></path></g><g transform="translate(273 15)"><path d="M37.9 -12.4C42.3 1.1 34.2 18.6 21.4 27.4C8.6 36.2 -9 36.3 -20.7 27.9C-32.5 19.5 -38.4 2.6 -34 -11C-29.6 -24.6 -14.8 -34.7 1 -35C16.8 -35.3 33.6 -25.8 37.9 -12.4Z" stroke="#74b6ec" fill="none" stroke-width="20"></path></g><g transform="translate(608 594)"><path d="M34 -10.4C38.6 3 33 20.3 21.5 28.5C9.9 36.6 -7.6 35.6 -19.7 26.8C-31.9 18.1 -38.6 1.7 -34.4 -11.2C-30.3 -24 -15.1 -33.2 -0.2 -33.2C14.7 -33.1 29.5 -23.7 34 -10.4Z" stroke="#74b6ec" fill="none" stroke-width="20"></path></g></g></svg>